<svg xmlns="http://www.w3.org/2000/svg"><defs><font id="fontello" horiz-adv-x="1000"><font-face font-family="fontello" font-weight="400" ascent="850" descent="-150"/><glyph glyph-name="bold" unicode="" d="M310 1q41-18 78-18 210 0 210 187 0 64-23 101-15 24-34 41t-38 26-45 14-47 6-53 1q-40 0-56-6v-88q0-59-1-88V85q0-21 2-47t7-37zm-8 417q23-4 61-4 46 0 80 7t61 25 42 50 14 79q0 39-16 68t-45 46-60 24-69 8q-28 0-73-7 0-28 3-84t2-85v-45q0-30-1-44 0-26 1-38zM0-79l1 53q9 2 48 9t59 15q4 7 7 15t4 19 4 18 1 21 0 19v36q0 548-12 572-2 5-12 8t-25 6-28 4-27 3-17 2l-2 46q55 1 190 6t208 6q13 0 38-1t38 0q39 0 76-7t72-24 60-39 41-59 16-76q0-29-9-54t-22-40-36-32-41-25-47-22q86-20 144-75t57-138q0-56-20-101t-52-72-77-48-91-27-98-8q-25 0-74 2t-74 1q-59 0-171-6T0-79z" horiz-adv-x="785.7"/><glyph glyph-name="italic" unicode="" d="M0-78l10 48q12 4 34 9t40 11 33 13q16 19 23 56 1 4 35 162t63 303 29 165v14q-13 8-30 11t-39 4-32 3l10 58q19-1 67-4t84-4 67-1q27 0 55 1t68 4 54 4q-2-22-10-50-17-6-57-16t-60-19q-5-10-8-23t-5-23-4-25-4-24q-15-82-49-234t-43-198q-1-5-7-32t-11-51-9-46-4-32l1-10q9-3 103-18-2-24-9-55-6 0-18-1t-18-1q-16 0-49 6t-48 6q-77 1-115 1-28 0-79-5T0-78z" horiz-adv-x="571.4"/><glyph glyph-name="thumb-tack" unicode="" d="M650 779q12 0 24-5 19-8 29-23t11-35V-3q0-19-11-35t-29-23q-10-4-24-4-27 0-47 18L357 189 111-47Q91-66 65-66q-13 0-25 5-18 7-29 23T0-3v719q0 19 11 35t29 23q12 5 25 5h585z" horiz-adv-x="714.3"/><glyph glyph-name="link" unicode="" d="M813 171q0 23-16 38L681 325q-16 16-38 16-24 0-40-18l10-10 12-12q3-3 9-11t7-14 2-15q0-23-16-38t-38-16q-8 0-15 2t-14 7-11 9-12 12-10 10q-19-17-19-40t16-38L639 53q15-15 38-15 22 0 38 15l82 81q16 16 16 37zM420 565q0 22-15 38L290 718q-16 16-38 16t-38-15l-82-82q-16-15-16-37t16-38l116-116q15-15 38-15t40 17l-11 11-12 12q-3 3-8 10t-7 14-2 16q0 22 15 38t38 15q9 0 16-2t14-7 11-8 12-12 10-11q18 17 18 41zm500-394q0-66-48-113l-82-81q-46-47-113-47-68 0-114 48L448 93q-46 47-46 114 0 68 49 116l-49 49q-48-49-116-49-67 0-114 47L56 486Q9 533 9 600t47 113l82 82q47 46 114 46t114-47l115-116q46-46 46-113 0-69-49-117l49-49q48 49 116 49 67 0 114-47l116-116q47-47 47-114z" horiz-adv-x="928.6"/><glyph glyph-name="picture-o" unicode="" d="M357 529q0-45-31-76t-76-32-76 32-31 76 31 76 76 31 76-31 31-76zm572-215V64H143v107l178 179 90-89 285 285zm53 393H89q-7 0-12-5t-6-13V11q0-7 6-13t12-5h893q7 0 13 5t5 13v678q0 8-5 13t-13 5zm89-18V11q0-37-26-63t-63-27H89q-36 0-63 27T0 11v678q0 37 26 63t63 27h893q37 0 63-27t26-63z" horiz-adv-x="1071.4"/><glyph glyph-name="repeat" unicode="" d="M857 707V457q0-14-10-25t-26-11H571q-23 0-32 23-10 22 7 38l77 77q-82 77-194 77-58 0-111-23t-91-61-61-91-23-111 23-111 61-91 91-61 111-23q66 0 125 29t100 82q4 6 13 7 8 0 14-5l76-77q5-4 6-11t-5-13Q698 2 611-38T429-79q-87 0-167 34T126 47 34 184 0 350t34 166 92 137 136 92 167 34q82 0 158-31t137-88l72 72q17 18 39 8 22-9 22-33z" horiz-adv-x="857.1"/><glyph glyph-name="undo" unicode="" d="M857 350q0-87-34-166T732 47 595-45 429-79q-96 0-183 41T99 76q-4 6-4 13t5 11l76 77q6 5 14 5 9-1 13-7 41-53 100-82t126-29q58 0 110 23t92 61 61 91 22 111-22 111-61 91-92 61-110 23q-55 0-105-20t-90-57l77-77q17-16 8-38-10-23-33-23H36q-15 0-25 11T0 457v250q0 24 22 33 22 10 39-8l72-72q60 57 137 88t159 31q87 0 166-34t137-92 91-137 34-166z" horiz-adv-x="857.1"/><glyph glyph-name="trash-o" unicode="" d="M286 439V118q0-8-5-13t-13-5h-36q-8 0-13 5t-5 13v321q0 8 5 13t13 5h36q8 0 13-5t5-13zm143 0V118q0-8-5-13t-13-5h-36q-8 0-13 5t-5 13v321q0 8 5 13t13 5h36q8 0 13-5t5-13zm142 0V118q0-8-5-13t-12-5h-36q-8 0-13 5t-5 13v321q0 8 5 13t13 5h36q7 0 12-5t5-13zm72-404v529H143V35q0-12 4-22t8-15 6-5h464q2 0 6 5t8 15 4 22zM268 636h250l-27 65q-4 5-9 6H305q-6-1-10-6zm518-18v-36q0-8-5-13t-13-5h-54V35q0-46-26-80t-63-34H161q-37 0-63 33T71 33v531H18q-8 0-13 5t-5 13v36q0 8 5 13t13 5h172l39 93q9 21 31 35t44 15h178q23 0 44-15t30-35l39-93h173q8 0 13-5t5-13z" horiz-adv-x="785.7"/><glyph glyph-name="floppy-o" unicode="" d="M214-7h429v214H214V-7zm500 0h72v500q0 8-6 21t-11 20L612 690q-5 6-19 12t-22 5V475q0-22-15-38t-38-16H196q-22 0-37 16t-16 38v232H71V-7h72v232q0 22 16 38t37 16h465q22 0 38-16t15-38V-7zM500 511v178q0 8-5 13t-13 5H375q-7 0-13-5t-5-13V511q0-7 5-13t13-5h107q7 0 13 5t5 13zm357-18V-25q0-22-15-38t-38-16H54q-23 0-38 16T0-25v750q0 22 16 38t38 16h517q23 0 50-12t42-26l156-157q16-15 27-42t11-49z" horiz-adv-x="857.1"/><glyph glyph-name="compress" unicode="" d="M429 314V64q0-14-11-25t-25-10-25 10l-81 81L102-66q-5-5-13-5t-12 5L13-2Q7 4 7 11t6 13l185 185-80 80q-11 11-11 25t11 25 25 11h250q14 0 25-11t11-25zm421 375q0-7-6-12L659 491l80-80q11-11 11-25t-11-25-25-11H464q-14 0-25 11t-10 25v250q0 14 10 25t25 10 25-10l81-80 185 185q6 5 13 5t13-5l63-64q6-5 6-13z" horiz-adv-x="857.1"/><glyph glyph-name="eye" unicode="" d="M929 314q-85 132-213 197 34-58 34-125 0-103-73-177t-177-73-177 73-73 177q0 67 34 125-128-65-213-197 75-114 187-182t242-68 243 68 186 182zM527 529q0 11-8 19t-19 7q-70 0-120-50t-50-119q0-11 8-19t19-8 19 8 8 19q0 48 34 82t82 34q11 0 19 8t8 19zm473-215q0-19-11-38-78-129-210-206T500-7 221 70 11 276Q0 295 0 314t11 39q78 128 210 205t279 78 279-78 210-205q11-20 11-39z" horiz-adv-x="1000"/><glyph glyph-name="eye-slash" unicode="" d="M310 105l43 79q-48 35-76 88t-27 114q0 67 34 125-128-65-213-197 94-144 239-209zm217 424q0 11-8 19t-19 7q-70 0-120-50t-50-119q0-11 8-19t19-8 19 8 8 19q0 48 34 82t82 34q11 0 19 8t8 19zm202 106v-5q-59-105-176-316T377-2l-28-50q-5-9-15-9-7 0-75 39-9 6-9 16 0 7 25 49-80 36-147 96T11 276Q0 293 0 314t11 39q86 131 212 207t277 76q50 0 100-10l31 54q5 9 15 9 3 0 10-3t18-9 18-10 18-10 10-7q9-5 9-15zm21-249q0-78-44-142t-117-91l157 280q4-25 4-47zm250-72q0-19-11-38-22-36-61-81-84-96-194-149T500-7l41 74q119 10 219 76t169 171q-65 100-158 164l35 63q53-36 102-85t81-103q11-19 11-39z" horiz-adv-x="1000"/><glyph glyph-name="question-circle" unicode="" d="M500 82v107q0 8-5 13t-13 5H375q-8 0-13-5t-5-13V82q0-8 5-13t13-5h107q8 0 13 5t5 13zm143 375q0 49-31 91t-77 65-95 23q-136 0-207-119-9-13 4-24l74-55q4-4 10-4 9 0 14 7 30 38 48 51 19 14 48 14 27 0 48-15t21-33q0-21-11-34t-38-25q-35-15-65-48t-29-70v-20q0-8 5-13t13-5h107q8 0 13 5t5 13q0 10 12 27t30 28q18 10 28 16t25 19 25 27 16 34 7 45zm214-107q0-117-57-215T644-21 429-79 213-21 58 135 0 350t58 215 155 156 216 58 215-58 156-156 57-215z" horiz-adv-x="857.1"/><glyph glyph-name="times" unicode="" d="M724 112q0-22-15-38L633-2q-16-15-38-15T557-2L393 163 229-2q-16-15-38-15T153-2L77 74q-16 16-16 38t16 38l164 164L77 478q-16 16-16 38t16 38l76 76q16 16 38 16t38-16l164-164 164 164q16 16 38 16t38-16l76-76q15-15 15-38t-15-38L545 314l164-164q15-15 15-38z" horiz-adv-x="785.7"/><glyph glyph-name="align-left" unicode="" d="M1000 100V29q0-15-11-25T964-7H36Q21-7 11 4T0 29v71q0 15 11 25t25 11h928q15 0 25-11t11-25zM786 314v-71q0-15-11-25t-25-11H36q-15 0-25 11T0 243v71q0 15 11 25t25 11h714q15 0 25-11t11-25zm143 215v-72q0-14-11-25t-25-11H36q-15 0-25 11T0 457v72q0 14 11 25t25 10h857q14 0 25-10t11-25zM714 743v-72q0-14-10-25t-25-10H36q-15 0-25 10T0 671v72q0 14 11 25t25 11h643q14 0 25-11t10-25z" horiz-adv-x="1000"/><glyph glyph-name="align-center" unicode="" d="M1000 100V29q0-15-11-25T964-7H36Q21-7 11 4T0 29v71q0 15 11 25t25 11h928q15 0 25-11t11-25zM786 314v-71q0-15-11-25t-25-11H250q-14 0-25 11t-11 25v71q0 15 11 25t25 11h500q15 0 25-11t11-25zm143 215v-72q0-14-11-25t-25-11H107q-14 0-25 11t-11 25v72q0 14 11 25t25 10h786q14 0 25-10t11-25zM714 743v-72q0-14-10-25t-25-10H321q-14 0-25 10t-10 25v72q0 14 10 25t25 11h358q14 0 25-11t10-25z" horiz-adv-x="1000"/><glyph glyph-name="align-right" unicode="" d="M1000 100V29q0-15-11-25T964-7H36Q21-7 11 4T0 29v71q0 15 11 25t25 11h928q15 0 25-11t11-25zm0 214v-71q0-15-11-25t-25-11H250q-14 0-25 11t-11 25v71q0 15 11 25t25 11h714q15 0 25-11t11-25zm0 215v-72q0-14-11-25t-25-11H107q-14 0-25 11t-11 25v72q0 14 11 25t25 10h857q15 0 25-10t11-25zm0 214v-72q0-14-11-25t-25-10H321q-14 0-25 10t-10 25v72q0 14 10 25t25 11h643q15 0 25-11t11-25z" horiz-adv-x="1000"/><glyph glyph-name="arrows-alt" unicode="" d="M716 548L518 350l198-198 80 80q17 18 39 8 22-9 22-33V-43q0-14-10-25t-26-11H571q-23 0-32 23-10 21 7 38l81 81-198 198L231 63l80-81q17-17 8-38-10-23-33-23H36q-15 0-25 11T0-43v250q0 24 22 33 22 10 39-8l80-80 198 198-198 198-80-80q-11-11-25-11-7 0-14 3-22 9-22 33v250q0 14 11 25t25 11h250q23 0 33-23 9-21-8-38l-80-81 198-198 198 198-81 81q-17 17-7 38 9 23 32 23h250q15 0 26-11t10-25V493q0-24-22-33-7-3-14-3-14 0-25 11z" horiz-adv-x="857.1"/><glyph glyph-name="bars" unicode="" d="M857 100V29q0-15-10-25T821-7H36Q21-7 11 4T0 29v71q0 15 11 25t25 11h785q15 0 26-11t10-25zm0 286v-72q0-14-10-25t-26-10H36q-15 0-25 10T0 314v72q0 14 11 25t25 10h785q15 0 26-10t10-25zm0 285v-71q0-14-10-25t-26-11H36q-15 0-25 11T0 600v71q0 15 11 26t25 10h785q15 0 26-10t10-26z" horiz-adv-x="857.1"/><glyph glyph-name="list-ul" unicode="" d="M214 64q0-44-31-76t-76-31-76 31T0 64t31 76 76 31 76-31 31-76zm0 286q0-45-31-76t-76-31-76 31-31 76 31 76 76 31 76-31 31-76zm786-232V11q0-7-5-13t-13-5H304q-8 0-13 5t-5 13v107q0 7 5 12t13 6h678q7 0 13-6t5-12zM214 636q0-45-31-76t-76-31-76 31-31 76 31 76 76 31 76-31 31-76zm786-232V296q0-7-5-12t-13-5H304q-8 0-13 5t-5 12v108q0 7 5 12t13 5h678q7 0 13-5t5-12zm0 285V582q0-7-5-12t-13-6H304q-8 0-13 6t-5 12v107q0 8 5 13t13 5h678q7 0 13-5t5-13z" horiz-adv-x="1000"/><glyph glyph-name="list-ol" unicode="" d="M213-54q0-45-31-70t-75-26q-60 0-96 37l31 49q28-25 60-25 16 0 28 8t12 24q0 35-59 31L69 5q4 6 18 24t24 31 20 21v1q-9 0-27-1t-27 0V51H18v85h186V87l-53-65q28-6 45-27t17-49zm1 350v-89H12q-4 20-4 30 0 29 14 52t31 38 37 27 31 24 14 25q0 14-9 22t-22 7q-25 0-45-32l-47 33q13 28 40 44t59 16q40 0 68-23t28-63q0-28-19-51t-42-36-42-28-20-30h71v34h59zm786-178V11q0-7-5-13t-13-5H304q-8 0-13 5t-5 13v107q0 8 5 13t13 5h678q7 0 13-6t5-12zM214 620v-56H27v56h60v67q0 45 1 68v7h-1q-5-10-28-30l-40 42 76 71h59V620h60zm786-216V296q0-7-5-12t-13-5H304q-8 0-13 5t-5 12v108q0 7 5 12t13 5h678q7 0 13-5t5-12zm0 285V582q0-7-5-12t-13-6H304q-8 0-13 6t-5 12v107q0 8 5 13t13 5h678q7 0 13-5t5-13z" horiz-adv-x="1000"/><glyph glyph-name="strikethrough" unicode="" d="M982 350q8 0 13-5t5-13v-36q0-7-5-12t-13-5H18q-8 0-13 5t-5 12v36q0 8 5 13t13 5h964zm-712 36q-16 19-29 44-27 55-27 105 0 101 75 173 74 71 219 71 28 0 94-11 36-7 98-27 6-21 12-66 8-68 8-102 0-10-3-25l-7-2-46 4-8 1q-28 83-58 114-49 51-117 51-64 0-101-33-38-32-38-81 0-41 37-78t156-72q38-12 96-37 33-16 53-29H270zm283-143h229q4-22 4-51 0-62-23-119-13-31-40-58-20-19-61-45-44-27-85-37-45-12-113-12-64 0-109 13l-78 23q-32 8-40 15-5 5-5 12v8q0 60-1 87v38l1 20v25l57 1q8-19 17-40t12-31 7-15q20-32 45-52 24-20 59-32 33-12 73-12 36 0 78 15 43 14 68 48 26 34 26 72 0 47-45 87-19 16-76 40z" horiz-adv-x="1000"/><glyph glyph-name="underline" unicode="" d="M27 726q-21 1-25 2l-2 49q7 1 22 1 34 0 63-3 74-4 93-4 47 0 93 2 65 2 82 3 31 0 48 1l-1-8 1-36v-5q-33-5-69-5-33 0-44-14-7-7-7-73v-33l1-127 8-157q3-69 28-112 20-33 54-52 49-26 98-26 59 0 107 16 31 10 55 28 27 20 37 36 20 31 29 63 12 41 12 128 0 44-2 72t-6 68-8 89l-2 33q-3 37-13 49-19 20-43 19l-56-1-8 2 1 48h47l114-6q43-2 110 6l10-1q3-22 3-29 0-4-2-17-25-7-47-8-41-6-44-9-8-8-8-23v-15q0-11 1-17 5-11 13-221 3-109-9-170-8-42-23-68-21-36-62-69-42-31-102-49-61-19-142-19-93 0-159 26t-99 68q-34 42-47 109-9 45-9 132v186q0 105-9 119-14 20-82 22zM857-61v36q0 8-5 13t-13 5H18q-8 0-13-5T0-25v-36q0-8 5-13t13-5h821q8 0 13 5t5 13z" horiz-adv-x="857.1"/><glyph glyph-name="table" unicode="" d="M286 82v107q0 8-5 13t-13 5H89q-7 0-12-5t-6-13V82q0-8 6-13t12-5h179q8 0 13 5t5 13zm0 214v108q0 7-5 12t-13 5H89q-7 0-12-5t-6-12V296q0-7 6-12t12-5h179q8 0 13 5t5 12zM571 82v107q0 8-5 13t-12 5H375q-8 0-13-5t-5-13V82q0-8 5-13t13-5h179q7 0 12 5t5 13zM286 511v107q0 8-5 13t-13 5H89q-7 0-12-5t-6-13V511q0-8 6-13t12-5h179q8 0 13 5t5 13zm285-215v108q0 7-5 12t-12 5H375q-8 0-13-5t-5-12V296q0-7 5-12t13-5h179q7 0 12 5t5 12zM857 82v107q0 8-5 13t-13 5H661q-8 0-13-5t-5-13V82q0-8 5-13t13-5h178q8 0 13 5t5 13zM571 511v107q0 8-5 13t-12 5H375q-8 0-13-5t-5-13V511q0-8 5-13t13-5h179q7 0 12 5t5 13zm286-215v108q0 7-5 12t-13 5H661q-8 0-13-5t-5-12V296q0-7 5-12t13-5h178q8 0 13 5t5 12zm0 215v107q0 8-5 13t-13 5H661q-8 0-13-5t-5-13V511q0-8 5-13t13-5h178q8 0 13 5t5 13zm72 178V82q0-37-27-63T839-7H89Q53-7 26 19T0 82v607q0 37 26 63t63 27h750q37 0 63-27t27-63z" horiz-adv-x="928.6"/><glyph glyph-name="columns" unicode="" d="M89-7h340v643H71V11q0-7 6-13t12-5zm768 18v625H500V-7h339q8 0 13 5t5 13zm72 678V11q0-37-27-63t-63-27H89q-36 0-63 27T0 11v678q0 37 26 63t63 27h750q37 0 63-27t27-63z" horiz-adv-x="928.6"/><glyph glyph-name="quote-left" unicode="" d="M429 314V100q0-45-32-76T321-7H107Q63-7 31 24T0 100v393q0 58 23 111t61 91 91 61 111 23h35q15 0 26-11t10-25v-72q0-14-10-25t-26-10h-35q-59 0-101-42t-42-101v-18q0-22 16-38t37-16h125q45 0 76-31t32-76zm500 0V100q0-45-32-76T821-7H607q-44 0-76 31t-31 76v393q0 58 23 111t61 91 91 61 111 23h35q15 0 26-11t10-25v-72q0-14-10-25t-26-10h-35q-59 0-101-42t-42-101v-18q0-22 16-38t37-16h125q45 0 76-31t32-76z" horiz-adv-x="928.6"/><glyph glyph-name="code" unicode="" d="M344 69l-28-28q-5-5-12-5t-13 5L31 302q-6 5-6 12t6 13l260 260q5 6 13 6t12-6l28-28q6-5 6-13t-6-12L125 314 344 95q6-6 6-13t-6-13zm330 596L466-56q-2-7-9-11t-13-1l-34 9q-8 3-11 9t-2 14l209 720q2 8 8 11t13 2l35-10q7-2 11-9t1-13zm367-363L781 41q-6-5-13-5t-13 5l-28 28q-5 6-5 13t5 13l219 219-219 220q-5 5-5 12t5 13l28 28q6 6 13 6t13-6l260-260q5-5 5-13t-5-12z" horiz-adv-x="1071.4"/><glyph glyph-name="superscript" unicode="" d="M501 86V-7H362l-89 141-13 23q-4 5-6 12h-2q0-2-1-4t-2-4-2-4q-5-11-14-25L147-7H3v93h71l110 162L81 400H5v94h154l77-127q1-2 13-24 4-5 6-11h2q1 5 6 11l14 24 78 127h143v-94h-69L326 251 440 86h61zm355 379V350H569l-1 15q-3 16-3 26 0 36 15 65t36 48 47 37 47 30 36 30 15 36q0 21-17 35t-39 13q-29 0-54-21-8-6-20-22l-59 52q15 20 35 37 47 36 105 36 61 0 99-33t38-89q0-31-13-57t-35-43-45-33-46-28-37-28-17-36h130v45h70z" horiz-adv-x="857.1"/><glyph glyph-name="subscript" unicode="" d="M501 86V-7H362l-89 141-13 23q-4 5-6 12h-2q0-2-1-4t-2-4-2-4q-5-11-14-25L147-7H3v93h71l110 162L81 400H5v94h154l77-127q1-2 13-24 4-5 6-11h2q1 5 6 11l14 24 78 127h143v-94h-69L326 251 440 86h61zM857-35v-115H570l-2 15q-2 25-2 26 0 35 15 65t36 48 47 37 47 30 36 30 15 36q0 21-17 35t-39 13q-28 0-54-21-8-6-20-22l-59 52q15 20 35 37 45 36 105 36 62 0 100-33t37-89q0-37-19-66t-47-48-55-35-49-35-23-41h130v45h70z" horiz-adv-x="857.1"/><glyph glyph-name="header" unicode="" d="M939-79q-25 0-74 2t-75 2q-24 0-73-2t-74-2q-13 0-21 12t-7 25q0 18 9 26t22 9 29 4 25 9q18 11 18 78v218q0 12-1 17-7 3-28 3H313q-22 0-29-3v-17l-1-207q0-79 21-91 9-6 26-8t32-2 25-8 11-26q0-14-6-26t-21-13q-26 0-78 2t-77 2q-24 0-71-2t-71-2q-13 0-20 12t-7 25q0 17 9 25T76-7t26 4 24 9q18 13 18 80l-1 31v454q0 2 1 15t0 20-1 21-2 24-4 20-6 18-9 10q-8 5-25 7t-29 1-23 7-10 26q0 14 6 26t20 13q26 0 78-2t77-2q23 0 71 2t70 2q14 0 21-13t7-26q0-17-9-25t-22-8-27-2-24-7q-20-12-20-90l1-178v-18q7-2 22-2h390q14 0 21 2 1 6 1 18v178q0 78-19 90-10 6-33 7t-37 7-14 28q0 14 7 26t21 13q24 0 74-2t73-2q24 0 72 2t72 2q14 0 21-13t7-26q0-17-10-25t-22-8-29-2-24-7q-20-13-20-90l1-526q0-66 19-78 9-6 25-8t30-2 23-9 10-25q0-14-6-26t-20-13z" horiz-adv-x="1000"/><glyph glyph-name="window-maximize" unicode="" d="M143 64h714v429H143V64zm857 625V11q0-37-26-63t-63-27H89q-36 0-63 27T0 11v678q0 37 26 63t63 27h822q37 0 63-27t26-63z" horiz-adv-x="1000"/></font>
</defs>
</svg>
